<svg xmlns="http://www.w3.org/2000/svg" xmlns:xlink="http://www.w3.org/1999/xlink" version="1.1" x="0" y="0" height="230" width="800" viewBox="0 0 800 230" preserveAspectRatio="none"  >
<g label="Query sequence" class="clusterblast-cluster"  >
<text x="5" y="20" class="clusterblast-acc"  >
Query sequence</text>
<line x1="10" y1="35" x2="778.0" y2="35" style="stroke-width:1; stroke:grey; "  />
<polygon points="64,40 122,40 127,35 122,30 64,30 64,40 " style="fill:#d81515; stroke-width:1; stroke:black; " description="&lt;b&gt;assembly_01906&lt;/b&gt;&lt;br&gt;hypothetical protein&lt;br&gt;Location: 33 - 915" locus_tag="assembly_01906" class="clusterblast-orf" id="dummy-1_q0_0_all"  />
<polygon points="145,35 150,30 299,30 299,40 150,40 145,35 " style="fill:#15d815; stroke-width:1; stroke:black; " description="&lt;b&gt;assembly_01907&lt;/b&gt;&lt;br&gt;Lactococcin-G-processing and transport ATP-binding protein LagD&lt;br&gt;Location: 1180 - 3355" locus_tag="assembly_01907" class="clusterblast-orf" id="dummy-1_q1_0_all"  />
<polygon points="306,35 311,30 343,30 343,40 311,40 306,35 " style="fill:#1515d8; stroke-width:1; stroke:black; " description="&lt;b&gt;assembly_01908&lt;/b&gt;&lt;br&gt;hypothetical protein&lt;br&gt;Location: 3453 - 3978" locus_tag="assembly_01908" class="clusterblast-orf" id="dummy-1_q2_0_all"  />
<polygon points="344,35 349,30 368,30 368,40 349,40 344,35 " style="fill:#d815d8; stroke-width:1; stroke:black; " description="&lt;b&gt;assembly_01909&lt;/b&gt;&lt;br&gt;hypothetical protein&lt;br&gt;Location: 4001 - 4340" locus_tag="assembly_01909" class="clusterblast-orf" id="dummy-1_q3_0_all"  />
<polygon points="371,35 376,30 384,30 384,40 376,40 371,35 " style="fill:#d8d815; stroke-width:1; stroke:black; " description="&lt;b&gt;assembly_01910&lt;/b&gt;&lt;br&gt;Bacteriocin pediocin PA-1&lt;br&gt;Location: 4377 - 4566" locus_tag="assembly_01910" class="clusterblast-orf" id="dummy-1_q4_0_all"  />
<polygon points="404,35 409,30 415,30 415,40 409,40 404,35 " style="fill:white; stroke-width:1; stroke:black; " description="&lt;b&gt;assembly_01911&lt;/b&gt;&lt;br&gt;hypothetical protein&lt;br&gt;Location: 4850 - 4997" locus_tag="assembly_01911" class="clusterblast-orf" id="dummy-1_q5_0_all"  />
<polygon points="413,35 418,30 423,30 423,40 418,40 413,35 " style="fill:white; stroke-width:1; stroke:black; " description="&lt;b&gt;assembly_01912&lt;/b&gt;&lt;br&gt;hypothetical protein&lt;br&gt;Location: 4968 - 5118" locus_tag="assembly_01912" class="clusterblast-orf" id="dummy-1_q6_0_all"  />
<polygon points="425,35 430,30 438,30 438,40 430,40 425,35 " style="fill:white; stroke-width:1; stroke:black; " description="&lt;b&gt;assembly_01913&lt;/b&gt;&lt;br&gt;hypothetical protein&lt;br&gt;Location: 5136 - 5322" locus_tag="assembly_01913" class="clusterblast-orf" id="dummy-1_q7_0_all"  />
<polygon points="443,35 448,30 489,30 489,40 448,40 443,35 " style="fill:white; stroke-width:1; stroke:black; " description="&lt;b&gt;assembly_01914&lt;/b&gt;&lt;br&gt;hypothetical protein&lt;br&gt;Location: 5391 - 6045" locus_tag="assembly_01914" class="clusterblast-orf" id="dummy-1_q8_0_all"  />
<polygon points="500,40 557,40 562,35 557,30 500,30 500,40 " style="fill:#15d8d8; stroke-width:1; stroke:black; " description="&lt;b&gt;assembly_01915&lt;/b&gt;&lt;br&gt;hypothetical protein&lt;br&gt;Location: 6198 - 7080" locus_tag="assembly_01915" class="clusterblast-orf" id="dummy-1_q9_0_all"  />
<polygon points="575,40 610,40 615,35 610,30 575,30 575,40 " style="fill:white; stroke-width:1; stroke:black; " description="&lt;b&gt;assembly_01916&lt;/b&gt;&lt;br&gt;hypothetical protein&lt;br&gt;Location: 7273 - 7840" locus_tag="assembly_01916" class="clusterblast-orf" id="dummy-1_q10_0_all"  />
<polygon points="632,35 637,30 685,30 685,40 637,40 632,35 " style="fill:white; stroke-width:1; stroke:black; " description="&lt;b&gt;assembly_01917&lt;/b&gt;&lt;br&gt;hypothetical protein&lt;br&gt;Location: 8078 - 8828" locus_tag="assembly_01917" class="clusterblast-orf" id="dummy-1_q11_0_all"  />
<polygon points="706,40 711,40 716,35 711,30 706,30 706,40 " style="fill:white; stroke-width:1; stroke:black; " description="&lt;b&gt;assembly_01918&lt;/b&gt;&lt;br&gt;hypothetical protein&lt;br&gt;Location: 9127 - 9265" locus_tag="assembly_01918" class="clusterblast-orf" id="dummy-1_q12_0_all"  />
</g>
<g label="NZ_LT960778" description="NZ_LT960778_c1: Lactobacillus sakei strain FLEC01 genome assembly, plasmid: 2 (50% of genes show similarity), bacteriocin" class="clusterblast-cluster"  >
<text x="5" y="70" class="clusterblast-acc"  >
<a xlink:href="https://antismash-db.secondarymetabolites.org/go/NZ_LT960778/1" target="_blank">NZ_LT960778_c1</a>: Lactobacillus sakei strain FLEC01 genome assembly, plasmid: 2 (50% of genes show similarity), bacteriocin</text>
<line x1="10" y1="85" x2="778.0" y2="85" style="stroke-width:1; stroke:grey; "  />
</g>
<g id="a1_000"  >
<polygon points="0,90 62,90 67,85 62,80 0,80 0,90 " style="fill:white; stroke-width:1; stroke:black; " description="&lt;b&gt;LSAF01_RS09595&lt;/b&gt;&lt;br&gt;class 1b ribonucleoside-diphosphate reductase subunit beta&lt;br&gt;Location: 20509 - 21459" locus_tag="LSAF01_RS09595" class="clusterblast-orf" id="dummy-1_h1_5_0"  />
</g>
<g id="a1_001"  >
<polygon points="77,90 137,90 142,85 137,80 77,80 77,90 " style="fill:#15d8d8; stroke-width:1; stroke:black; " description="&lt;b&gt;LSAF01_RS09600&lt;/b&gt;&lt;br&gt;IS30 family transposase&lt;br&gt;Location: 21600 - 22528&lt;br&gt;&lt;br&gt;&lt;b&gt;BlastP hit with assembly_01915&lt;/b&gt;&lt;br&gt;Percentage identity: 99&lt;br&gt;Percentage coverage: 66&lt;br&gt;BLAST bit score: 386&lt;br&gt;E-value: 3.5e-105" locus_tag="LSAF01_RS09600" class="clusterblast-orf" id="dummy-1_h1_5_1"  />
</g>
<g id="a1_002"  >
<polygon points="145,90 158,90 163,85 158,80 145,80 145,90 " style="fill:white; stroke-width:1; stroke:black; " description="&lt;b&gt;LSAF01_RS09605&lt;/b&gt;&lt;br&gt;hypothetical protein&lt;br&gt;Location: 22571 - 22831" locus_tag="LSAF01_RS09605" class="clusterblast-orf" id="dummy-1_h1_5_2"  />
</g>
<g id="a1_003"  >
<polygon points="202,90 230,90 235,85 230,80 202,80 202,90 " style="fill:white; stroke-width:1; stroke:black; " description="&lt;b&gt;LSAF01_RS09610&lt;/b&gt;&lt;br&gt;DNA starvation/stationary phase protection protein&lt;br&gt;Location: 23380 - 23847" locus_tag="LSAF01_RS09610" class="clusterblast-orf" id="dummy-1_h1_5_3"  />
</g>
<g id="a1_004"  >
<polygon points="232,85 237,80 242,80 242,90 237,90 232,85 " style="fill:white; stroke-width:1; stroke:black; " description="&lt;b&gt;LSAF01_RS09615&lt;/b&gt;&lt;br&gt;ABC transporter ATP-binding protein&lt;br&gt;Location: 23808 - 23948" locus_tag="LSAF01_RS09615" class="clusterblast-orf" id="dummy-1_h1_5_4"  />
</g>
<g id="a1_005"  >
<polygon points="244,90 245,90 250,85 245,80 244,80 244,90 " style="fill:#15d8d8; stroke-width:1; stroke:black; " description="&lt;b&gt;LSAF01_RS09620&lt;/b&gt;&lt;br&gt;IS30 family transposase&lt;br&gt;Location: 23975 - 24064&lt;br&gt;&lt;br&gt;&lt;b&gt;BlastP hit with assembly_01915&lt;/b&gt;&lt;br&gt;Percentage identity: 90&lt;br&gt;Percentage coverage: 10&lt;br&gt;BLAST bit score: 57&lt;br&gt;E-value: 2.2e-06" locus_tag="LSAF01_RS09620" class="clusterblast-orf" id="dummy-1_h1_5_5"  />
</g>
<g id="a1_006"  >
<polygon points="253,85 258,80 291,80 291,90 258,90 253,85 " style="fill:#1515d8; stroke-width:1; stroke:black; " description="&lt;b&gt;LSAF01_RS09625&lt;/b&gt;&lt;br&gt;hypothetical protein&lt;br&gt;Location: 24098 - 24631&lt;br&gt;&lt;br&gt;&lt;b&gt;BlastP hit with assembly_01908&lt;/b&gt;&lt;br&gt;Percentage identity: 47&lt;br&gt;Percentage coverage: 97&lt;br&gt;BLAST bit score: 158&lt;br&gt;E-value: 9.2e-37" locus_tag="LSAF01_RS09625" class="clusterblast-orf" id="dummy-1_h1_5_6"  />
</g>
<g id="a1_007"  >
<polygon points="292,85 297,80 317,80 317,90 297,90 292,85 " style="fill:white; stroke-width:1; stroke:black; " description="&lt;b&gt;LSAF01_RS09630&lt;/b&gt;&lt;br&gt;bacteriocin immunity protein&lt;br&gt;Location: 24645 - 25001" locus_tag="LSAF01_RS09630" class="clusterblast-orf" id="dummy-1_h1_5_7"  />
</g>
<g id="a1_008"  >
<polygon points="322,85 327,80 333,80 333,90 327,90 322,85 " style="fill:#d8d815; stroke-width:1; stroke:black; " description="&lt;b&gt;LSAF01_RS09635&lt;/b&gt;&lt;br&gt;bacteriocin&lt;br&gt;Location: 25071 - 25238&lt;br&gt;&lt;br&gt;&lt;b&gt;BlastP hit with assembly_01910&lt;/b&gt;&lt;br&gt;Percentage identity: 55&lt;br&gt;Percentage coverage: 90&lt;br&gt;BLAST bit score: 67&lt;br&gt;E-value: 4.5e-10" locus_tag="LSAF01_RS09635" class="clusterblast-orf" id="dummy-1_h1_5_8"  />
</g>
<g id="a1_009"  >
<polygon points="341,85 346,80 353,80 353,90 346,90 341,85 " style="fill:#d8d815; stroke-width:1; stroke:black; " description="&lt;b&gt;LSAF01_RS09640&lt;/b&gt;&lt;br&gt;bacteriocin&lt;br&gt;Location: 25343 - 25510&lt;br&gt;&lt;br&gt;&lt;b&gt;BlastP hit with assembly_01910&lt;/b&gt;&lt;br&gt;Percentage identity: 54&lt;br&gt;Percentage coverage: 90&lt;br&gt;BLAST bit score: 66&lt;br&gt;E-value: 1.7e-09" locus_tag="LSAF01_RS09640" class="clusterblast-orf" id="dummy-1_h1_5_9"  />
</g>
<g id="a1_0010"  >
<polygon points="366,90 515,90 520,85 515,80 366,80 366,90 " style="fill:#15d815; stroke-width:1; stroke:black; " description="&lt;b&gt;LSAF01_RS09645&lt;/b&gt;&lt;br&gt;peptide cleavage/export ABC transporter&lt;br&gt;Location: 25707 - 27881&lt;br&gt;&lt;br&gt;&lt;b&gt;BlastP hit with assembly_01907&lt;/b&gt;&lt;br&gt;Percentage identity: 52&lt;br&gt;Percentage coverage: 99&lt;br&gt;BLAST bit score: 711&lt;br&gt;E-value: 9e-203" locus_tag="LSAF01_RS09645" class="clusterblast-orf" id="dummy-1_h1_5_10"  />
</g>
<g id="a1_0011"  >
<polygon points="565,85 570,80 655,80 655,90 570,90 565,85 " style="fill:white; stroke-width:1; stroke:black; " description="&lt;b&gt;LSAF01_RS09650&lt;/b&gt;&lt;br&gt;nucleotidyltransferase&lt;br&gt;Location: 28514 - 29797" locus_tag="LSAF01_RS09650" class="clusterblast-orf" id="dummy-1_h1_5_11"  />
</g>
<g id="a1_0012"  >
<polygon points="655,85 660,80 696,80 696,90 660,90 655,85 " style="fill:white; stroke-width:1; stroke:black; " description="&lt;b&gt;LSAF01_RS09655&lt;/b&gt;&lt;br&gt;hypothetical protein&lt;br&gt;Location: 29794 - 30372" locus_tag="LSAF01_RS09655" class="clusterblast-orf" id="dummy-1_h1_5_12"  />
</g>
<g id="a1_0013"  >
<polygon points="715,90 775,90 780,85 775,80 715,80 715,90 " style="fill:#15d8d8; stroke-width:1; stroke:black; " description="&lt;b&gt;LSAF01_RS09660&lt;/b&gt;&lt;br&gt;IS30-like element ISLsa1 family transposase&lt;br&gt;Location: 30637 - 31557&lt;br&gt;&lt;br&gt;&lt;b&gt;BlastP hit with assembly_01915&lt;/b&gt;&lt;br&gt;Percentage identity: 49&lt;br&gt;Percentage coverage: 91&lt;br&gt;BLAST bit score: 257&lt;br&gt;E-value: 2.5e-66" locus_tag="LSAF01_RS09660" class="clusterblast-orf" id="dummy-1_h1_5_13"  />
</g>
</svg>
