<svg xmlns="http://www.w3.org/2000/svg" xmlns:xlink="http://www.w3.org/1999/xlink" version="1.1" x="0" y="0" height="230" width="800" viewBox="0 0 800 230" preserveAspectRatio="none"  >
<g label="Query sequence" class="clusterblast-cluster"  >
<text x="5" y="20" class="clusterblast-acc"  >
Query sequence</text>
<line x1="10" y1="35" x2="778.0" y2="35" style="stroke-width:1; stroke:grey; "  />
<polygon points="0,40 70,40 75,35 70,30 0,30 0,40 " style="fill:#d81515; stroke-width:1; stroke:black; " description="&lt;b&gt;assembly_01906&lt;/b&gt;&lt;br&gt;hypothetical protein&lt;br&gt;Location: 33 - 915" locus_tag="assembly_01906" class="clusterblast-orf" id="dummy-1_q0_0_all"  />
<polygon points="97,35 102,30 281,30 281,40 102,40 97,35 " style="fill:#15d815; stroke-width:1; stroke:black; " description="&lt;b&gt;assembly_01907&lt;/b&gt;&lt;br&gt;Lactococcin-G-processing and transport ATP-binding protein LagD&lt;br&gt;Location: 1180 - 3355" locus_tag="assembly_01907" class="clusterblast-orf" id="dummy-1_q1_0_all"  />
<polygon points="289,35 294,30 334,30 334,40 294,40 289,35 " style="fill:#1515d8; stroke-width:1; stroke:black; " description="&lt;b&gt;assembly_01908&lt;/b&gt;&lt;br&gt;hypothetical protein&lt;br&gt;Location: 3453 - 3978" locus_tag="assembly_01908" class="clusterblast-orf" id="dummy-1_q2_0_all"  />
<polygon points="336,35 341,30 364,30 364,40 341,40 336,35 " style="fill:#d815d8; stroke-width:1; stroke:black; " description="&lt;b&gt;assembly_01909&lt;/b&gt;&lt;br&gt;hypothetical protein&lt;br&gt;Location: 4001 - 4340" locus_tag="assembly_01909" class="clusterblast-orf" id="dummy-1_q3_0_all"  />
<polygon points="367,35 372,30 383,30 383,40 372,40 367,35 " style="fill:#d8d815; stroke-width:1; stroke:black; " description="&lt;b&gt;assembly_01910&lt;/b&gt;&lt;br&gt;Bacteriocin pediocin PA-1&lt;br&gt;Location: 4377 - 4566" locus_tag="assembly_01910" class="clusterblast-orf" id="dummy-1_q4_0_all"  />
<polygon points="407,35 412,30 420,30 420,40 412,40 407,35 " style="fill:white; stroke-width:1; stroke:black; " description="&lt;b&gt;assembly_01911&lt;/b&gt;&lt;br&gt;hypothetical protein&lt;br&gt;Location: 4850 - 4997" locus_tag="assembly_01911" class="clusterblast-orf" id="dummy-1_q5_0_all"  />
<polygon points="417,35 422,30 430,30 430,40 422,40 417,35 " style="fill:white; stroke-width:1; stroke:black; " description="&lt;b&gt;assembly_01912&lt;/b&gt;&lt;br&gt;hypothetical protein&lt;br&gt;Location: 4968 - 5118" locus_tag="assembly_01912" class="clusterblast-orf" id="dummy-1_q6_0_all"  />
<polygon points="431,35 436,30 447,30 447,40 436,40 431,35 " style="fill:white; stroke-width:1; stroke:black; " description="&lt;b&gt;assembly_01913&lt;/b&gt;&lt;br&gt;hypothetical protein&lt;br&gt;Location: 5136 - 5322" locus_tag="assembly_01913" class="clusterblast-orf" id="dummy-1_q7_0_all"  />
<polygon points="453,35 458,30 508,30 508,40 458,40 453,35 " style="fill:white; stroke-width:1; stroke:black; " description="&lt;b&gt;assembly_01914&lt;/b&gt;&lt;br&gt;hypothetical protein&lt;br&gt;Location: 5391 - 6045" locus_tag="assembly_01914" class="clusterblast-orf" id="dummy-1_q8_0_all"  />
<polygon points="521,40 591,40 596,35 591,30 521,30 521,40 " style="fill:#15d8d8; stroke-width:1; stroke:black; " description="&lt;b&gt;assembly_01915&lt;/b&gt;&lt;br&gt;hypothetical protein&lt;br&gt;Location: 6198 - 7080" locus_tag="assembly_01915" class="clusterblast-orf" id="dummy-1_q9_0_all"  />
<polygon points="612,40 655,40 660,35 655,30 612,30 612,40 " style="fill:white; stroke-width:1; stroke:black; " description="&lt;b&gt;assembly_01916&lt;/b&gt;&lt;br&gt;hypothetical protein&lt;br&gt;Location: 7273 - 7840" locus_tag="assembly_01916" class="clusterblast-orf" id="dummy-1_q10_0_all"  />
<polygon points="680,35 685,30 743,30 743,40 685,40 680,35 " style="fill:white; stroke-width:1; stroke:black; " description="&lt;b&gt;assembly_01917&lt;/b&gt;&lt;br&gt;hypothetical protein&lt;br&gt;Location: 8078 - 8828" locus_tag="assembly_01917" class="clusterblast-orf" id="dummy-1_q11_0_all"  />
<polygon points="769,40 775,40 780,35 775,30 769,30 769,40 " style="fill:white; stroke-width:1; stroke:black; " description="&lt;b&gt;assembly_01918&lt;/b&gt;&lt;br&gt;hypothetical protein&lt;br&gt;Location: 9127 - 9265" locus_tag="assembly_01918" class="clusterblast-orf" id="dummy-1_q12_0_all"  />
</g>
<g label="NZ_CP021998" description="NZ_CP021998_c2: Lactobacillus plantarum strain LPL-1 plasmid pPLP-1, complete... (55% of genes show similarity), bacteriocin" class="clusterblast-cluster"  >
<text x="5" y="70" class="clusterblast-acc"  >
<a xlink:href="https://antismash-db.secondarymetabolites.org/go/NZ_CP021998/2" target="_blank">NZ_CP021998_c2</a>: Lactobacillus plantarum strain LPL-1 plasmid pPLP-1, complete... (55% of genes show similarity), bacteriocin</text>
<line x1="10" y1="85" x2="778.0" y2="85" style="stroke-width:1; stroke:grey; "  />
</g>
<g id="a1_000"  >
<polygon points="7,85 12,80 47,80 47,90 12,90 7,85 " style="fill:white; stroke-width:1; stroke:black; " description="&lt;b&gt;CEF05_RS15495&lt;/b&gt;&lt;br&gt;hypothetical protein&lt;br&gt;Location: 9284 - 8817" locus_tag="CEF05_RS15495" class="clusterblast-orf" id="dummy-1_h1_2_0"  />
</g>
<g id="a1_001"  >
<polygon points="50,85 55,80 73,80 73,90 55,90 50,85 " style="fill:white; stroke-width:1; stroke:black; " description="&lt;b&gt;CEF05_RS15490&lt;/b&gt;&lt;br&gt;hypothetical protein&lt;br&gt;Location: 8781 - 8509" locus_tag="CEF05_RS15490" class="clusterblast-orf" id="dummy-1_h1_2_1"  />
</g>
<g id="a1_002"  >
<polygon points="78,85 83,80 315,80 315,90 83,90 78,85 " style="fill:white; stroke-width:1; stroke:black; " description="&lt;b&gt;CEF05_RS15485&lt;/b&gt;&lt;br&gt;metal ABC transporter ATPase&lt;br&gt;Location: 8449 - 5645" locus_tag="CEF05_RS15485" class="clusterblast-orf" id="dummy-1_h1_2_2"  />
</g>
<g id="a1_003"  >
<polygon points="336,85 341,80 520,80 520,90 341,90 336,85 " style="fill:#15d815; stroke-width:1; stroke:black; " description="&lt;b&gt;CEF05_RS15480&lt;/b&gt;&lt;br&gt;pediocin PA-1 transport/processing ATP-binding protein PedD&lt;br&gt;Location: 5390 - 3216&lt;br&gt;&lt;br&gt;&lt;b&gt;BlastP hit with assembly_01907&lt;/b&gt;&lt;br&gt;Percentage identity: 100&lt;br&gt;Percentage coverage: 100&lt;br&gt;BLAST bit score: 1401&lt;br&gt;E-value: 0.0" locus_tag="CEF05_RS15480" class="clusterblast-orf" id="dummy-1_h1_2_3"  />
</g>
<g id="a1_004"  >
<polygon points="528,85 533,80 573,80 573,90 533,90 528,85 " style="fill:#1515d8; stroke-width:1; stroke:black; " description="&lt;b&gt;CEF05_RS15475&lt;/b&gt;&lt;br&gt;thioredoxin&lt;br&gt;Location: 3117 - 2593&lt;br&gt;&lt;br&gt;&lt;b&gt;BlastP hit with assembly_01908&lt;/b&gt;&lt;br&gt;Percentage identity: 99&lt;br&gt;Percentage coverage: 100&lt;br&gt;BLAST bit score: 337&lt;br&gt;E-value: 6.5e-91" locus_tag="CEF05_RS15475" class="clusterblast-orf" id="dummy-1_h1_2_4"  />
</g>
<g id="a1_005"  >
<polygon points="575,85 580,80 603,80 603,90 580,90 575,85 " style="fill:#d815d8; stroke-width:1; stroke:black; " description="&lt;b&gt;CEF05_RS15470&lt;/b&gt;&lt;br&gt;pediocin PA-1 immunity protein&lt;br&gt;Location: 2569 - 2231&lt;br&gt;&lt;br&gt;&lt;b&gt;BlastP hit with assembly_01909&lt;/b&gt;&lt;br&gt;Percentage identity: 100&lt;br&gt;Percentage coverage: 100&lt;br&gt;BLAST bit score: 227&lt;br&gt;E-value: 6.1e-58" locus_tag="CEF05_RS15470" class="clusterblast-orf" id="dummy-1_h1_2_5"  />
</g>
<g id="a1_006"  >
<polygon points="606,85 611,80 621,80 621,90 611,90 606,85 " style="fill:#d8d815; stroke-width:1; stroke:black; " description="&lt;b&gt;CEF05_RS15465&lt;/b&gt;&lt;br&gt;bacteriocin&lt;br&gt;Location: 2193 - 2014&lt;br&gt;&lt;br&gt;&lt;b&gt;BlastP hit with assembly_01910&lt;/b&gt;&lt;br&gt;Percentage identity: 72&lt;br&gt;Percentage coverage: 81&lt;br&gt;BLAST bit score: 80&lt;br&gt;E-value: 6.7e-14" locus_tag="CEF05_RS15465" class="clusterblast-orf" id="dummy-1_h1_2_6"  />
</g>
<g id="a1_007"  >
<polygon points="650,90 724,90 729,85 724,80 650,80 650,90 " style="fill:#d81515; stroke-width:1; stroke:black; " description="&lt;b&gt;CEF05_RS15460&lt;/b&gt;&lt;br&gt;replication initiation protein&lt;br&gt;Location: 1681 - 746&lt;br&gt;&lt;br&gt;&lt;b&gt;BlastP hit with assembly_01906&lt;/b&gt;&lt;br&gt;Percentage identity: 48&lt;br&gt;Percentage coverage: 104&lt;br&gt;BLAST bit score: 269&lt;br&gt;E-value: 6.2e-70" locus_tag="CEF05_RS15460" class="clusterblast-orf" id="dummy-1_h1_2_7"  />
</g>
<g id="a1_008"  >
<polygon points="728,90 767,90 772,85 767,80 728,80 728,90 " style="fill:white; stroke-width:1; stroke:black; " description="&lt;b&gt;CEF05_RS15455&lt;/b&gt;&lt;br&gt;HTH domain-containing protein&lt;br&gt;Location: 753 - 235" locus_tag="CEF05_RS15455" class="clusterblast-orf" id="dummy-1_h1_2_8"  />
</g>
</svg>
