<svg xmlns="http://www.w3.org/2000/svg" xmlns:xlink="http://www.w3.org/1999/xlink" version="1.1" x="0" y="0" height="230" width="800" viewBox="0 0 800 230" preserveAspectRatio="none"  >
<g label="Query sequence" class="clusterblast-cluster"  >
<text x="5" y="20" class="clusterblast-acc"  >
Query sequence</text>
<line x1="10" y1="35" x2="778.0" y2="35" style="stroke-width:1; stroke:grey; "  />
<polygon points="68,40 125,40 130,35 125,30 68,30 68,40 " style="fill:#d81515; stroke-width:1; stroke:black; " description="&lt;b&gt;assembly_01906&lt;/b&gt;&lt;br&gt;hypothetical protein&lt;br&gt;Location: 33 - 915" locus_tag="assembly_01906" class="clusterblast-orf" id="dummy-1_q0_0_all"  />
<polygon points="148,35 153,30 300,30 300,40 153,40 148,35 " style="fill:#15d815; stroke-width:1; stroke:black; " description="&lt;b&gt;assembly_01907&lt;/b&gt;&lt;br&gt;Lactococcin-G-processing and transport ATP-binding protein LagD&lt;br&gt;Location: 1180 - 3355" locus_tag="assembly_01907" class="clusterblast-orf" id="dummy-1_q1_0_all"  />
<polygon points="307,35 312,30 343,30 343,40 312,40 307,35 " style="fill:#1515d8; stroke-width:1; stroke:black; " description="&lt;b&gt;assembly_01908&lt;/b&gt;&lt;br&gt;hypothetical protein&lt;br&gt;Location: 3453 - 3978" locus_tag="assembly_01908" class="clusterblast-orf" id="dummy-1_q2_0_all"  />
<polygon points="345,35 350,30 369,30 369,40 350,40 345,35 " style="fill:#d815d8; stroke-width:1; stroke:black; " description="&lt;b&gt;assembly_01909&lt;/b&gt;&lt;br&gt;hypothetical protein&lt;br&gt;Location: 4001 - 4340" locus_tag="assembly_01909" class="clusterblast-orf" id="dummy-1_q3_0_all"  />
<polygon points="371,35 376,30 384,30 384,40 376,40 371,35 " style="fill:#d8d815; stroke-width:1; stroke:black; " description="&lt;b&gt;assembly_01910&lt;/b&gt;&lt;br&gt;Bacteriocin pediocin PA-1&lt;br&gt;Location: 4377 - 4566" locus_tag="assembly_01910" class="clusterblast-orf" id="dummy-1_q4_0_all"  />
<polygon points="404,35 409,30 414,30 414,40 409,40 404,35 " style="fill:white; stroke-width:1; stroke:black; " description="&lt;b&gt;assembly_01911&lt;/b&gt;&lt;br&gt;hypothetical protein&lt;br&gt;Location: 4850 - 4997" locus_tag="assembly_01911" class="clusterblast-orf" id="dummy-1_q5_0_all"  />
<polygon points="412,35 417,30 423,30 423,40 417,40 412,35 " style="fill:white; stroke-width:1; stroke:black; " description="&lt;b&gt;assembly_01912&lt;/b&gt;&lt;br&gt;hypothetical protein&lt;br&gt;Location: 4968 - 5118" locus_tag="assembly_01912" class="clusterblast-orf" id="dummy-1_q6_0_all"  />
<polygon points="424,35 429,30 437,30 437,40 429,40 424,35 " style="fill:white; stroke-width:1; stroke:black; " description="&lt;b&gt;assembly_01913&lt;/b&gt;&lt;br&gt;hypothetical protein&lt;br&gt;Location: 5136 - 5322" locus_tag="assembly_01913" class="clusterblast-orf" id="dummy-1_q7_0_all"  />
<polygon points="442,35 447,30 488,30 488,40 447,40 442,35 " style="fill:white; stroke-width:1; stroke:black; " description="&lt;b&gt;assembly_01914&lt;/b&gt;&lt;br&gt;hypothetical protein&lt;br&gt;Location: 5391 - 6045" locus_tag="assembly_01914" class="clusterblast-orf" id="dummy-1_q8_0_all"  />
<polygon points="498,40 555,40 560,35 555,30 498,30 498,40 " style="fill:#15d8d8; stroke-width:1; stroke:black; " description="&lt;b&gt;assembly_01915&lt;/b&gt;&lt;br&gt;hypothetical protein&lt;br&gt;Location: 6198 - 7080" locus_tag="assembly_01915" class="clusterblast-orf" id="dummy-1_q9_0_all"  />
<polygon points="573,40 608,40 613,35 608,30 573,30 573,40 " style="fill:white; stroke-width:1; stroke:black; " description="&lt;b&gt;assembly_01916&lt;/b&gt;&lt;br&gt;hypothetical protein&lt;br&gt;Location: 7273 - 7840" locus_tag="assembly_01916" class="clusterblast-orf" id="dummy-1_q10_0_all"  />
<polygon points="629,35 634,30 682,30 682,40 634,40 629,35 " style="fill:white; stroke-width:1; stroke:black; " description="&lt;b&gt;assembly_01917&lt;/b&gt;&lt;br&gt;hypothetical protein&lt;br&gt;Location: 8078 - 8828" locus_tag="assembly_01917" class="clusterblast-orf" id="dummy-1_q11_0_all"  />
<polygon points="702,40 707,40 712,35 707,30 702,30 702,40 " style="fill:white; stroke-width:1; stroke:black; " description="&lt;b&gt;assembly_01918&lt;/b&gt;&lt;br&gt;hypothetical protein&lt;br&gt;Location: 9127 - 9265" locus_tag="assembly_01918" class="clusterblast-orf" id="dummy-1_q12_0_all"  />
</g>
<g label="NZ_AZDX01000051" description="NZ_AZDX01000051_c1: Lactobacillus hordei DSM 19519 Scaffold51, whole genome s... (11% of genes show similarity), bacteriocin" class="clusterblast-cluster"  >
<text x="5" y="70" class="clusterblast-acc"  >
<a xlink:href="https://antismash-db.secondarymetabolites.org/go/NZ_AZDX01000051/1" target="_blank">NZ_AZDX01000051_c1</a>: Lactobacillus hordei DSM 19519 Scaffold51, whole genome s... (11% of genes show similarity), bacteriocin</text>
<line x1="10" y1="85" x2="778.0" y2="85" style="stroke-width:1; stroke:grey; "  />
</g>
<g id="a1_000"  >
<polygon points="0,90 1,90 6,85 1,80 0,80 0,90 " style="fill:white; stroke-width:1; stroke:black; " description="&lt;b&gt;FC92_RS11505&lt;/b&gt;&lt;br&gt;replication protein A&lt;br&gt;Location: 2 - 100" locus_tag="FC92_RS11505" class="clusterblast-orf" id="dummy-1_h1_8_0"  />
</g>
<g id="a1_001"  >
<polygon points="21,90 59,90 64,85 59,80 21,80 21,90 " style="fill:white; stroke-width:1; stroke:black; " description="&lt;b&gt;FC92_RS09750&lt;/b&gt;&lt;br&gt;XRE family transcriptional regulator&lt;br&gt;Location: 307 - 921" locus_tag="FC92_RS09750" class="clusterblast-orf" id="dummy-1_h1_8_1"  />
</g>
<g id="a1_002"  >
<polygon points="87,85 92,80 98,80 98,90 92,90 87,85 " style="fill:#d8d815; stroke-width:1; stroke:black; " description="&lt;b&gt;FC92_RS09755&lt;/b&gt;&lt;br&gt;type A2 lantipeptide&lt;br&gt;Location: 1250 - 1420&lt;br&gt;&lt;br&gt;&lt;b&gt;BlastP hit with assembly_01910&lt;/b&gt;&lt;br&gt;Percentage identity: 61&lt;br&gt;Percentage coverage: 79&lt;br&gt;BLAST bit score: 65&lt;br&gt;E-value: 2.9e-09" locus_tag="FC92_RS09755" class="clusterblast-orf" id="dummy-1_h1_8_2"  />
</g>
<g id="a1_003"  >
<polygon points="100,85 105,80 125,80 125,90 105,90 100,85 " style="fill:white; stroke-width:1; stroke:black; " description="&lt;b&gt;FC92_RS09760&lt;/b&gt;&lt;br&gt;bacteriocin immunity protein&lt;br&gt;Location: 1445 - 1798" locus_tag="FC92_RS09760" class="clusterblast-orf" id="dummy-1_h1_8_3"  />
</g>
<g id="a1_004"  >
<polygon points="126,85 131,80 163,80 163,90 131,90 126,85 " style="fill:white; stroke-width:1; stroke:black; " description="&lt;b&gt;FC92_RS09765&lt;/b&gt;&lt;br&gt;thioredoxin&lt;br&gt;Location: 1815 - 2345" locus_tag="FC92_RS09765" class="clusterblast-orf" id="dummy-1_h1_8_4"  />
</g>
<g id="a1_005"  >
<polygon points="187,90 195,90 200,85 195,80 187,80 187,90 " style="fill:white; stroke-width:1; stroke:black; " description="&lt;b&gt;FC92_RS09770&lt;/b&gt;&lt;br&gt;transcriptional regulator&lt;br&gt;Location: 2688 - 2876" locus_tag="FC92_RS09770" class="clusterblast-orf" id="dummy-1_h1_8_5"  />
</g>
<g id="a1_006"  >
<polygon points="200,90 231,90 236,85 231,80 200,80 200,90 " style="fill:white; stroke-width:1; stroke:black; " description="&lt;b&gt;FC92_RS09775&lt;/b&gt;&lt;br&gt;DUF3278 domain-containing protein&lt;br&gt;Location: 2880 - 3395" locus_tag="FC92_RS09775" class="clusterblast-orf" id="dummy-1_h1_8_6"  />
</g>
<g id="a1_007"  >
<polygon points="242,85 247,80 259,80 259,90 247,90 242,85 " style="fill:white; stroke-width:1; stroke:black; " description="&lt;b&gt;FC92_RS09780&lt;/b&gt;&lt;br&gt;hypothetical protein&lt;br&gt;Location: 3483 - 3728" locus_tag="FC92_RS09780" class="clusterblast-orf" id="dummy-1_h1_8_7"  />
</g>
<g id="a1_008"  >
<polygon points="258,85 263,80 275,80 275,90 263,90 258,85 " style="fill:white; stroke-width:1; stroke:black; " description="&lt;b&gt;FC92_RS09785&lt;/b&gt;&lt;br&gt;hypothetical protein&lt;br&gt;Location: 3704 - 3955" locus_tag="FC92_RS09785" class="clusterblast-orf" id="dummy-1_h1_8_8"  />
</g>
<g id="a1_009"  >
<polygon points="288,90 434,90 439,85 434,80 288,80 288,90 " style="fill:#15d815; stroke-width:1; stroke:black; " description="&lt;b&gt;FC92_RS09790&lt;/b&gt;&lt;br&gt;peptide cleavage/export ABC transporter&lt;br&gt;Location: 4146 - 6302&lt;br&gt;&lt;br&gt;&lt;b&gt;BlastP hit with assembly_01907&lt;/b&gt;&lt;br&gt;Percentage identity: 56&lt;br&gt;Percentage coverage: 98&lt;br&gt;BLAST bit score: 768&lt;br&gt;E-value: 6.2e-220" locus_tag="FC92_RS09790" class="clusterblast-orf" id="dummy-1_h1_8_9"  />
</g>
<g id="a1_0010"  >
<polygon points="440,90 531,90 536,85 531,80 440,80 440,90 " style="fill:white; stroke-width:1; stroke:black; " description="&lt;b&gt;FC92_RS09795&lt;/b&gt;&lt;br&gt;bacteriocin secretion accessory protein&lt;br&gt;Location: 6318 - 7694" locus_tag="FC92_RS09795" class="clusterblast-orf" id="dummy-1_h1_8_10"  />
</g>
<g id="a1_0011"  >
<polygon points="565,85 570,80 611,80 611,90 570,90 565,85 " style="fill:white; stroke-width:1; stroke:black; " description="&lt;b&gt;FC92_RS09800&lt;/b&gt;&lt;br&gt;DNA-binding protein&lt;br&gt;Location: 8107 - 8766" locus_tag="FC92_RS09800" class="clusterblast-orf" id="dummy-1_h1_8_11"  />
</g>
<g id="a1_0012"  >
<polygon points="624,85 629,80 646,80 646,90 629,90 624,85 " style="fill:white; stroke-width:1; stroke:black; " description="&lt;b&gt;FC92_RS09805&lt;/b&gt;&lt;br&gt;Txe/YoeB family addiction module toxin&lt;br&gt;Location: 8956 - 9270" locus_tag="FC92_RS09805" class="clusterblast-orf" id="dummy-1_h1_8_12"  />
</g>
<g id="a1_0013"  >
<polygon points="645,85 650,80 663,80 663,90 650,90 645,85 " style="fill:white; stroke-width:1; stroke:black; " description="&lt;b&gt;FC92_RS09810&lt;/b&gt;&lt;br&gt;type II toxin-antitoxin system Phd/YefM family antitoxin&lt;br&gt;Location: 9263 - 9523" locus_tag="FC92_RS09810" class="clusterblast-orf" id="dummy-1_h1_8_13"  />
</g>
<g id="a1_0014"  >
<polygon points="670,90 706,90 711,85 706,80 670,80 670,90 " style="fill:white; stroke-width:1; stroke:black; " description="&lt;b&gt;FC92_RS09815&lt;/b&gt;&lt;br&gt;site-specific integrase&lt;br&gt;Location: 9618 - 10205" locus_tag="FC92_RS09815" class="clusterblast-orf" id="dummy-1_h1_8_14"  />
</g>
<g id="a1_0015"  >
<polygon points="712,90 732,90 737,85 732,80 712,80 712,90 " style="fill:white; stroke-width:1; stroke:black; " description="&lt;b&gt;FC92_RS09820&lt;/b&gt;&lt;br&gt;hypothetical protein&lt;br&gt;Location: 10218 - 10583" locus_tag="FC92_RS09820" class="clusterblast-orf" id="dummy-1_h1_8_15"  />
</g>
<g id="a1_0016"  >
<polygon points="765,90 775,90 780,85 775,80 765,80 765,90 " style="fill:white; stroke-width:1; stroke:black; " description="&lt;b&gt;FC92_RS09825&lt;/b&gt;&lt;br&gt;hypothetical protein&lt;br&gt;Location: 10976 - 11188" locus_tag="FC92_RS09825" class="clusterblast-orf" id="dummy-1_h1_8_16"  />
</g>
</svg>
