<svg xmlns="http://www.w3.org/2000/svg" xmlns:xlink="http://www.w3.org/1999/xlink" version="1.1" x="0" y="0" height="230" width="800" viewBox="0 0 800 230" preserveAspectRatio="none"  >
<g label="Query sequence" class="clusterblast-cluster"  >
<text x="5" y="20" class="clusterblast-acc"  >
Query sequence</text>
<line x1="10" y1="35" x2="778.0" y2="35" style="stroke-width:1; stroke:grey; "  />
<polygon points="92,40 144,40 149,35 144,30 92,30 92,40 " style="fill:#d81515; stroke-width:1; stroke:black; " description="&lt;b&gt;assembly_01906&lt;/b&gt;&lt;br&gt;hypothetical protein&lt;br&gt;Location: 33 - 915" locus_tag="assembly_01906" class="clusterblast-orf" id="dummy-1_q0_0_all"  />
<polygon points="166,35 171,30 307,30 307,40 171,40 166,35 " style="fill:#15d815; stroke-width:1; stroke:black; " description="&lt;b&gt;assembly_01907&lt;/b&gt;&lt;br&gt;Lactococcin-G-processing and transport ATP-binding protein LagD&lt;br&gt;Location: 1180 - 3355" locus_tag="assembly_01907" class="clusterblast-orf" id="dummy-1_q1_0_all"  />
<polygon points="313,35 318,30 347,30 347,40 318,40 313,35 " style="fill:#1515d8; stroke-width:1; stroke:black; " description="&lt;b&gt;assembly_01908&lt;/b&gt;&lt;br&gt;hypothetical protein&lt;br&gt;Location: 3453 - 3978" locus_tag="assembly_01908" class="clusterblast-orf" id="dummy-1_q2_0_all"  />
<polygon points="348,35 353,30 370,30 370,40 353,40 348,35 " style="fill:#d815d8; stroke-width:1; stroke:black; " description="&lt;b&gt;assembly_01909&lt;/b&gt;&lt;br&gt;hypothetical protein&lt;br&gt;Location: 4001 - 4340" locus_tag="assembly_01909" class="clusterblast-orf" id="dummy-1_q3_0_all"  />
<polygon points="373,35 378,30 385,30 385,40 378,40 373,35 " style="fill:#d8d815; stroke-width:1; stroke:black; " description="&lt;b&gt;assembly_01910&lt;/b&gt;&lt;br&gt;Bacteriocin pediocin PA-1&lt;br&gt;Location: 4377 - 4566" locus_tag="assembly_01910" class="clusterblast-orf" id="dummy-1_q4_0_all"  />
<polygon points="403,35 408,30 413,30 413,40 408,40 403,35 " style="fill:white; stroke-width:1; stroke:black; " description="&lt;b&gt;assembly_01911&lt;/b&gt;&lt;br&gt;hypothetical protein&lt;br&gt;Location: 4850 - 4997" locus_tag="assembly_01911" class="clusterblast-orf" id="dummy-1_q5_0_all"  />
<polygon points="411,35 416,30 420,30 420,40 416,40 411,35 " style="fill:white; stroke-width:1; stroke:black; " description="&lt;b&gt;assembly_01912&lt;/b&gt;&lt;br&gt;hypothetical protein&lt;br&gt;Location: 4968 - 5118" locus_tag="assembly_01912" class="clusterblast-orf" id="dummy-1_q6_0_all"  />
<polygon points="422,35 427,30 434,30 434,40 427,40 422,35 " style="fill:white; stroke-width:1; stroke:black; " description="&lt;b&gt;assembly_01913&lt;/b&gt;&lt;br&gt;hypothetical protein&lt;br&gt;Location: 5136 - 5322" locus_tag="assembly_01913" class="clusterblast-orf" id="dummy-1_q7_0_all"  />
<polygon points="438,35 443,30 480,30 480,40 443,40 438,35 " style="fill:white; stroke-width:1; stroke:black; " description="&lt;b&gt;assembly_01914&lt;/b&gt;&lt;br&gt;hypothetical protein&lt;br&gt;Location: 5391 - 6045" locus_tag="assembly_01914" class="clusterblast-orf" id="dummy-1_q8_0_all"  />
<polygon points="490,40 542,40 547,35 542,30 490,30 490,40 " style="fill:#15d8d8; stroke-width:1; stroke:black; " description="&lt;b&gt;assembly_01915&lt;/b&gt;&lt;br&gt;hypothetical protein&lt;br&gt;Location: 6198 - 7080" locus_tag="assembly_01915" class="clusterblast-orf" id="dummy-1_q9_0_all"  />
<polygon points="559,40 591,40 596,35 591,30 559,30 559,40 " style="fill:white; stroke-width:1; stroke:black; " description="&lt;b&gt;assembly_01916&lt;/b&gt;&lt;br&gt;hypothetical protein&lt;br&gt;Location: 7273 - 7840" locus_tag="assembly_01916" class="clusterblast-orf" id="dummy-1_q10_0_all"  />
<polygon points="611,35 616,30 660,30 660,40 616,40 611,35 " style="fill:white; stroke-width:1; stroke:black; " description="&lt;b&gt;assembly_01917&lt;/b&gt;&lt;br&gt;hypothetical protein&lt;br&gt;Location: 8078 - 8828" locus_tag="assembly_01917" class="clusterblast-orf" id="dummy-1_q11_0_all"  />
<polygon points="679,40 683,40 688,35 683,30 679,30 679,40 " style="fill:white; stroke-width:1; stroke:black; " description="&lt;b&gt;assembly_01918&lt;/b&gt;&lt;br&gt;hypothetical protein&lt;br&gt;Location: 9127 - 9265" locus_tag="assembly_01918" class="clusterblast-orf" id="dummy-1_q12_0_all"  />
</g>
<g label="NZ_KB889550" description="NZ_KB889550_c1: Pediococcus acidilactici D3 PAD3 scaffold1, whole genome shot... (31% of genes show similarity), bacteriocin" class="clusterblast-cluster"  >
<text x="5" y="70" class="clusterblast-acc"  >
<a xlink:href="https://antismash-db.secondarymetabolites.org/go/NZ_KB889550/1" target="_blank">NZ_KB889550_c1</a>: Pediococcus acidilactici D3 PAD3 scaffold1, whole genome shot... (31% of genes show similarity), bacteriocin</text>
<line x1="10" y1="85" x2="778.0" y2="85" style="stroke-width:1; stroke:grey; "  />
</g>
<g id="a1_000"  >
<polygon points="0,85 5,80 25,80 25,90 5,90 0,85 " style="fill:white; stroke-width:1; stroke:black; " description="&lt;b&gt;PAD3_RS05925&lt;/b&gt;&lt;br&gt;transcriptional regulator Spx&lt;br&gt;Location: 1173315 - 1172917" locus_tag="PAD3_RS05925" class="clusterblast-orf" id="dummy-1_h1_1_0"  />
</g>
<g id="a1_001"  >
<polygon points="42,85 47,80 89,80 89,90 47,90 42,85 " style="fill:white; stroke-width:1; stroke:black; " description="&lt;b&gt;PAD3_RS05920&lt;/b&gt;&lt;br&gt;MBL fold metallo-hydrolase&lt;br&gt;Location: 1172663 - 1171926" locus_tag="PAD3_RS05920" class="clusterblast-orf" id="dummy-1_h1_1_1"  />
</g>
<g id="a1_002"  >
<polygon points="97,90 121,90 126,85 121,80 97,80 97,90 " style="fill:white; stroke-width:1; stroke:black; " description="&lt;b&gt;PAD3_RS05915&lt;/b&gt;&lt;br&gt;hypothetical protein&lt;br&gt;Location: 1171804 - 1171349" locus_tag="PAD3_RS05915" class="clusterblast-orf" id="dummy-1_h1_1_2"  />
</g>
<g id="a1_003"  >
<polygon points="130,90 139,90 144,85 139,80 130,80 130,90 " style="fill:white; stroke-width:1; stroke:black; " description="&lt;b&gt;PAD3_RS05910&lt;/b&gt;&lt;br&gt;hypothetical protein&lt;br&gt;Location: 1171297 - 1171076" locus_tag="PAD3_RS05910" class="clusterblast-orf" id="dummy-1_h1_1_3"  />
</g>
<g id="a1_004"  >
<polygon points="194,85 199,80 210,80 210,90 199,90 194,85 " style="fill:white; stroke-width:1; stroke:black; " description="&lt;b&gt;PAD3_RS09925&lt;/b&gt;&lt;br&gt;hypothetical protein&lt;br&gt;Location: 1170298 - 1170047" locus_tag="PAD3_RS09925" class="clusterblast-orf" id="dummy-1_h1_1_4"  />
</g>
<g id="a1_005"  >
<polygon points="216,90 228,90 233,85 228,80 216,80 216,90 " style="fill:white; stroke-width:1; stroke:black; " description="&lt;b&gt;PAD3_RS05880&lt;/b&gt;&lt;br&gt;AbrB/MazE/SpoVT family DNA-binding domain-containing protein&lt;br&gt;Location: 1169961 - 1169698" locus_tag="PAD3_RS05880" class="clusterblast-orf" id="dummy-1_h1_1_5"  />
</g>
<g id="a1_006"  >
<polygon points="232,90 250,90 255,85 250,80 232,80 232,90 " style="fill:white; stroke-width:1; stroke:black; " description="&lt;b&gt;PAD3_RS05875&lt;/b&gt;&lt;br&gt;type II toxin-antitoxin system PemK/MazF family toxin&lt;br&gt;Location: 1169704 - 1169360" locus_tag="PAD3_RS05875" class="clusterblast-orf" id="dummy-1_h1_1_6"  />
</g>
<g id="a1_007"  >
<polygon points="293,85 298,80 433,80 433,90 298,90 293,85 " style="fill:#15d815; stroke-width:1; stroke:black; " description="&lt;b&gt;PAD3_RS05870&lt;/b&gt;&lt;br&gt;pediocin PA-1 transport/processing ATP-binding protein PedD&lt;br&gt;Location: 1168769 - 1166595&lt;br&gt;&lt;br&gt;&lt;b&gt;BlastP hit with assembly_01907&lt;/b&gt;&lt;br&gt;Percentage identity: 100&lt;br&gt;Percentage coverage: 100&lt;br&gt;BLAST bit score: 1401&lt;br&gt;E-value: 0.0" locus_tag="PAD3_RS05870" class="clusterblast-orf" id="dummy-1_h1_1_7"  />
</g>
<g id="a1_008"  >
<polygon points="439,85 444,80 473,80 473,90 444,90 439,85 " style="fill:#1515d8; stroke-width:1; stroke:black; " description="&lt;b&gt;PAD3_RS05865&lt;/b&gt;&lt;br&gt;thiol reductase thioredoxin&lt;br&gt;Location: 1166496 - 1165972&lt;br&gt;&lt;br&gt;&lt;b&gt;BlastP hit with assembly_01908&lt;/b&gt;&lt;br&gt;Percentage identity: 99&lt;br&gt;Percentage coverage: 100&lt;br&gt;BLAST bit score: 339&lt;br&gt;E-value: 2.9e-91" locus_tag="PAD3_RS05865" class="clusterblast-orf" id="dummy-1_h1_1_8"  />
</g>
<g id="a1_009"  >
<polygon points="475,85 480,80 496,80 496,90 480,90 475,85 " style="fill:#d815d8; stroke-width:1; stroke:black; " description="&lt;b&gt;PAD3_RS05860&lt;/b&gt;&lt;br&gt;pediocin PA-1 immunity protein&lt;br&gt;Location: 1165948 - 1165610&lt;br&gt;&lt;br&gt;&lt;b&gt;BlastP hit with assembly_01909&lt;/b&gt;&lt;br&gt;Percentage identity: 100&lt;br&gt;Percentage coverage: 100&lt;br&gt;BLAST bit score: 227&lt;br&gt;E-value: 6.1e-58" locus_tag="PAD3_RS05860" class="clusterblast-orf" id="dummy-1_h1_1_9"  />
</g>
<g id="a1_0010"  >
<polygon points="499,85 504,80 511,80 511,90 504,90 499,85 " style="fill:#d8d815; stroke-width:1; stroke:black; " description="&lt;b&gt;PAD3_RS05855&lt;/b&gt;&lt;br&gt;bacteriocin pediocin PA-1&lt;br&gt;Location: 1165572 - 1165384&lt;br&gt;&lt;br&gt;&lt;b&gt;BlastP hit with assembly_01910&lt;/b&gt;&lt;br&gt;Percentage identity: 100&lt;br&gt;Percentage coverage: 100&lt;br&gt;BLAST bit score: 139&lt;br&gt;E-value: 1.2e-31" locus_tag="PAD3_RS05855" class="clusterblast-orf" id="dummy-1_h1_1_10"  />
</g>
<g id="a1_0011"  >
<polygon points="524,90 533,90 538,85 533,80 524,80 524,90 " style="fill:white; stroke-width:1; stroke:black; " description="&lt;b&gt;PAD3_RS05850&lt;/b&gt;&lt;br&gt;DUF2382 domain-containing protein&lt;br&gt;Location: 1165182 - 1164964" locus_tag="PAD3_RS05850" class="clusterblast-orf" id="dummy-1_h1_1_11"  />
</g>
<g id="a1_0012"  >
<polygon points="552,90 562,90 567,85 562,80 552,80 552,90 " style="fill:white; stroke-width:1; stroke:black; " description="&lt;b&gt;PAD3_RS09920&lt;/b&gt;&lt;br&gt;transposase&lt;br&gt;Location: 1164742 - 1164518" locus_tag="PAD3_RS09920" class="clusterblast-orf" id="dummy-1_h1_1_12"  />
</g>
<g id="a1_0013"  >
<polygon points="572,85 577,80 609,80 609,90 577,90 572,85 " style="fill:white; stroke-width:1; stroke:black; " description="&lt;b&gt;PAD3_RS05840&lt;/b&gt;&lt;br&gt;DUF536 domain-containing protein&lt;br&gt;Location: 1164444 - 1163866" locus_tag="PAD3_RS05840" class="clusterblast-orf" id="dummy-1_h1_1_13"  />
</g>
<g id="a1_0014"  >
<polygon points="609,85 614,80 668,80 668,90 614,90 609,85 " style="fill:#d81515; stroke-width:1; stroke:black; " description="&lt;b&gt;PAD3_RS05835&lt;/b&gt;&lt;br&gt;replication initiation protein&lt;br&gt;Location: 1163873 - 1162944&lt;br&gt;&lt;br&gt;&lt;b&gt;BlastP hit with assembly_01906&lt;/b&gt;&lt;br&gt;Percentage identity: 51&lt;br&gt;Percentage coverage: 103&lt;br&gt;BLAST bit score: 289&lt;br&gt;E-value: 5.8e-76" locus_tag="PAD3_RS05835" class="clusterblast-orf" id="dummy-1_h1_1_14"  />
</g>
<g id="a1_0015"  >
<polygon points="751,85 756,80 780,80 780,90 756,90 751,85 " style="fill:white; stroke-width:1; stroke:black; " description="&lt;b&gt;PAD3_RS05830&lt;/b&gt;&lt;br&gt;DNA recombinase&lt;br&gt;Location: 1161671 - 1161222" locus_tag="PAD3_RS05830" class="clusterblast-orf" id="dummy-1_h1_1_15"  />
</g>
</svg>
