<svg xmlns="http://www.w3.org/2000/svg" xmlns:xlink="http://www.w3.org/1999/xlink" version="1.1" x="0" y="0" height="230" width="800" viewBox="0 0 800 230" preserveAspectRatio="none"  >
<g label="Query sequence" class="clusterblast-cluster"  >
<text x="5" y="20" class="clusterblast-acc"  >
Query sequence</text>
<line x1="10" y1="35" x2="778.0" y2="35" style="stroke-width:1; stroke:grey; "  />
<polygon points="0,40 70,40 75,35 70,30 0,30 0,40 " style="fill:#d81515; stroke-width:1; stroke:black; " description="&lt;b&gt;assembly_01906&lt;/b&gt;&lt;br&gt;hypothetical protein&lt;br&gt;Location: 33 - 915" locus_tag="assembly_01906" class="clusterblast-orf" id="dummy-1_q0_0_all"  />
<polygon points="97,35 102,30 281,30 281,40 102,40 97,35 " style="fill:#15d815; stroke-width:1; stroke:black; " description="&lt;b&gt;assembly_01907&lt;/b&gt;&lt;br&gt;Lactococcin-G-processing and transport ATP-binding protein LagD&lt;br&gt;Location: 1180 - 3355" locus_tag="assembly_01907" class="clusterblast-orf" id="dummy-1_q1_0_all"  />
<polygon points="289,35 294,30 334,30 334,40 294,40 289,35 " style="fill:#1515d8; stroke-width:1; stroke:black; " description="&lt;b&gt;assembly_01908&lt;/b&gt;&lt;br&gt;hypothetical protein&lt;br&gt;Location: 3453 - 3978" locus_tag="assembly_01908" class="clusterblast-orf" id="dummy-1_q2_0_all"  />
<polygon points="336,35 341,30 364,30 364,40 341,40 336,35 " style="fill:#d815d8; stroke-width:1; stroke:black; " description="&lt;b&gt;assembly_01909&lt;/b&gt;&lt;br&gt;hypothetical protein&lt;br&gt;Location: 4001 - 4340" locus_tag="assembly_01909" class="clusterblast-orf" id="dummy-1_q3_0_all"  />
<polygon points="367,35 372,30 383,30 383,40 372,40 367,35 " style="fill:#d8d815; stroke-width:1; stroke:black; " description="&lt;b&gt;assembly_01910&lt;/b&gt;&lt;br&gt;Bacteriocin pediocin PA-1&lt;br&gt;Location: 4377 - 4566" locus_tag="assembly_01910" class="clusterblast-orf" id="dummy-1_q4_0_all"  />
<polygon points="407,35 412,30 420,30 420,40 412,40 407,35 " style="fill:white; stroke-width:1; stroke:black; " description="&lt;b&gt;assembly_01911&lt;/b&gt;&lt;br&gt;hypothetical protein&lt;br&gt;Location: 4850 - 4997" locus_tag="assembly_01911" class="clusterblast-orf" id="dummy-1_q5_0_all"  />
<polygon points="417,35 422,30 430,30 430,40 422,40 417,35 " style="fill:white; stroke-width:1; stroke:black; " description="&lt;b&gt;assembly_01912&lt;/b&gt;&lt;br&gt;hypothetical protein&lt;br&gt;Location: 4968 - 5118" locus_tag="assembly_01912" class="clusterblast-orf" id="dummy-1_q6_0_all"  />
<polygon points="431,35 436,30 447,30 447,40 436,40 431,35 " style="fill:white; stroke-width:1; stroke:black; " description="&lt;b&gt;assembly_01913&lt;/b&gt;&lt;br&gt;hypothetical protein&lt;br&gt;Location: 5136 - 5322" locus_tag="assembly_01913" class="clusterblast-orf" id="dummy-1_q7_0_all"  />
<polygon points="453,35 458,30 508,30 508,40 458,40 453,35 " style="fill:white; stroke-width:1; stroke:black; " description="&lt;b&gt;assembly_01914&lt;/b&gt;&lt;br&gt;hypothetical protein&lt;br&gt;Location: 5391 - 6045" locus_tag="assembly_01914" class="clusterblast-orf" id="dummy-1_q8_0_all"  />
<polygon points="521,40 591,40 596,35 591,30 521,30 521,40 " style="fill:#15d8d8; stroke-width:1; stroke:black; " description="&lt;b&gt;assembly_01915&lt;/b&gt;&lt;br&gt;hypothetical protein&lt;br&gt;Location: 6198 - 7080" locus_tag="assembly_01915" class="clusterblast-orf" id="dummy-1_q9_0_all"  />
<polygon points="612,40 655,40 660,35 655,30 612,30 612,40 " style="fill:white; stroke-width:1; stroke:black; " description="&lt;b&gt;assembly_01916&lt;/b&gt;&lt;br&gt;hypothetical protein&lt;br&gt;Location: 7273 - 7840" locus_tag="assembly_01916" class="clusterblast-orf" id="dummy-1_q10_0_all"  />
<polygon points="680,35 685,30 743,30 743,40 685,40 680,35 " style="fill:white; stroke-width:1; stroke:black; " description="&lt;b&gt;assembly_01917&lt;/b&gt;&lt;br&gt;hypothetical protein&lt;br&gt;Location: 8078 - 8828" locus_tag="assembly_01917" class="clusterblast-orf" id="dummy-1_q11_0_all"  />
<polygon points="769,40 775,40 780,35 775,30 769,30 769,40 " style="fill:white; stroke-width:1; stroke:black; " description="&lt;b&gt;assembly_01918&lt;/b&gt;&lt;br&gt;hypothetical protein&lt;br&gt;Location: 9127 - 9265" locus_tag="assembly_01918" class="clusterblast-orf" id="dummy-1_q12_0_all"  />
</g>
<g label="NZ_AZDO01000025" description="NZ_AZDO01000025_c1: Lactobacillus futsaii JCM 17355 NODE 32, whole genome sho... (28% of genes show similarity), bacteriocin" class="clusterblast-cluster"  >
<text x="5" y="70" class="clusterblast-acc"  >
<a xlink:href="https://antismash-db.secondarymetabolites.org/go/NZ_AZDO01000025/1" target="_blank">NZ_AZDO01000025_c1</a>: Lactobacillus futsaii JCM 17355 NODE 32, whole genome sho... (28% of genes show similarity), bacteriocin</text>
<line x1="10" y1="85" x2="778.0" y2="85" style="stroke-width:1; stroke:grey; "  />
</g>
<g id="a1_000"  >
<polygon points="137,90 148,90 153,85 148,80 137,80 137,90 " style="fill:white; stroke-width:1; stroke:black; " description="&lt;b&gt;FC88_RS03225&lt;/b&gt;&lt;br&gt;bacteriocin&lt;br&gt;Location: 6082 - 5897" locus_tag="FC88_RS03225" class="clusterblast-orf" id="dummy-1_h1_10_0"  />
</g>
<g id="a1_001"  >
<polygon points="188,85 193,80 215,80 215,90 193,90 188,85 " style="fill:white; stroke-width:1; stroke:black; " description="&lt;b&gt;FC88_RS03220&lt;/b&gt;&lt;br&gt;hypothetical protein&lt;br&gt;Location: 5480 - 5154" locus_tag="FC88_RS03220" class="clusterblast-orf" id="dummy-1_h1_10_1"  />
</g>
<g id="a1_002"  >
<polygon points="240,85 245,80 267,80 267,90 245,90 240,85 " style="fill:white; stroke-width:1; stroke:black; " description="&lt;b&gt;FC88_RS03215&lt;/b&gt;&lt;br&gt;bacteriocin immunity protein&lt;br&gt;Location: 4868 - 4548" locus_tag="FC88_RS03215" class="clusterblast-orf" id="dummy-1_h1_10_2"  />
</g>
<g id="a1_003"  >
<polygon points="297,85 302,80 313,80 313,90 302,90 297,85 " style="fill:#d8d815; stroke-width:1; stroke:black; " description="&lt;b&gt;FC88_RS03210&lt;/b&gt;&lt;br&gt;bacteriocin&lt;br&gt;Location: 4184 - 4005&lt;br&gt;&lt;br&gt;&lt;b&gt;BlastP hit with assembly_01910&lt;/b&gt;&lt;br&gt;Percentage identity: 48&lt;br&gt;Percentage coverage: 87&lt;br&gt;BLAST bit score: 61&lt;br&gt;E-value: 5.5e-08" locus_tag="FC88_RS03210" class="clusterblast-orf" id="dummy-1_h1_10_3"  />
</g>
<g id="a1_004"  >
<polygon points="319,85 324,80 340,80 340,90 324,90 319,85 " style="fill:white; stroke-width:1; stroke:black; " description="&lt;b&gt;FC88_RS03205&lt;/b&gt;&lt;br&gt;XRE family transcriptional regulator&lt;br&gt;Location: 3931 - 3674" locus_tag="FC88_RS03205" class="clusterblast-orf" id="dummy-1_h1_10_4"  />
</g>
<g id="a1_005"  >
<polygon points="342,85 347,80 459,80 459,90 347,90 342,85 " style="fill:white; stroke-width:1; stroke:black; " description="&lt;b&gt;FC88_RS03200&lt;/b&gt;&lt;br&gt;bacteriocin secretion accessory protein&lt;br&gt;Location: 3654 - 2275" locus_tag="FC88_RS03200" class="clusterblast-orf" id="dummy-1_h1_10_5"  />
</g>
<g id="a1_006"  >
<polygon points="460,85 465,80 642,80 642,90 465,90 460,85 " style="fill:#15d815; stroke-width:1; stroke:black; " description="&lt;b&gt;FC88_RS03195&lt;/b&gt;&lt;br&gt;peptide cleavage/export ABC transporter&lt;br&gt;Location: 2263 - 107&lt;br&gt;&lt;br&gt;&lt;b&gt;BlastP hit with assembly_01907&lt;/b&gt;&lt;br&gt;Percentage identity: 53&lt;br&gt;Percentage coverage: 99&lt;br&gt;BLAST bit score: 759&lt;br&gt;E-value: 2.9e-217" locus_tag="FC88_RS03195" class="clusterblast-orf" id="dummy-1_h1_10_6"  />
</g>
</svg>
