<?xml version="1.0" encoding="utf-8" standalone="no"?>
<!DOCTYPE svg PUBLIC "-//W3C//DTD SVG 1.1//EN"
  "http://www.w3.org/Graphics/SVG/1.1/DTD/svg11.dtd">
<svg xmlns:xlink="http://www.w3.org/1999/xlink" width="720pt" height="720pt" viewBox="0 0 720 720" xmlns="http://www.w3.org/2000/svg" version="1.1">
 <metadata>
  <rdf:RDF xmlns:dc="http://purl.org/dc/elements/1.1/" xmlns:cc="http://creativecommons.org/ns#" xmlns:rdf="http://www.w3.org/1999/02/22-rdf-syntax-ns#">
   <cc:Work>
    <dc:type rdf:resource="http://purl.org/dc/dcmitype/StillImage"/>
    <dc:date>2023-06-07T15:02:29.431601</dc:date>
    <dc:format>image/svg+xml</dc:format>
    <dc:creator>
     <cc:Agent>
      <dc:title>Matplotlib v3.5.1, https://matplotlib.org/</dc:title>
     </cc:Agent>
    </dc:creator>
   </cc:Work>
  </rdf:RDF>
 </metadata>
 <defs>
  <style type="text/css">*{stroke-linejoin: round; stroke-linecap: butt}</style>
 </defs>
 <g id="figure_1">
  <g id="patch_1">
   <path d="M 0 720 
L 720 720 
L 720 0 
L 0 0 
L 0 720 
z
" style="fill: none"/>
  </g>
  <g id="axes_1">
   <g id="patch_2">
    <path d="M 199.173913 358.2 
C 199.173913 356.766649 199.1104 355.334002 198.983562 353.906275 
C 198.856724 352.478547 198.666684 351.057141 198.414003 349.646238 
L 150.652174 358.2 
L 199.173913 358.2 
z
" style="fill: #1f77b4"/>
   </g>
   <g id="patch_3">
    <path d="M 198.414003 349.646238 
C 197.539113 344.761093 195.919889 340.038964 193.612921 335.644881 
C 191.305952 331.250797 188.33843 327.236548 184.814062 323.742424 
L 150.652174 358.2 
L 198.414003 349.646238 
z
" style="fill: #ff7f0e"/>
   </g>
   <g id="patch_4">
    <path d="M 184.814062 323.742424 
C 184.814062 323.742424 184.814062 323.742424 184.814062 323.742424 
L 150.652174 358.2 
L 184.814062 323.742424 
z
" style="fill: #2ca02c"/>
   </g>
   <g id="patch_5">
    <path d="M 184.814062 323.742424 
C 178.01245 316.999178 169.364151 312.418406 159.964447 310.580248 
C 150.564742 308.742091 140.827936 309.727567 131.987167 313.411869 
C 123.146398 317.096171 115.591336 323.316909 110.278806 331.286243 
C 104.966275 339.255578 102.130435 348.622251 102.130435 358.2 
L 150.652174 358.2 
L 184.814062 323.742424 
z
" style="fill: #d62728"/>
   </g>
   <g id="patch_6">
    <path d="M 102.130435 358.2 
C 102.130435 371.06383 107.246022 383.413949 116.342123 392.510051 
C 125.438224 401.606152 137.788344 406.721739 150.652174 406.721739 
C 163.516004 406.721739 175.866123 401.606152 184.962225 392.510051 
C 194.058326 383.413949 199.173913 371.06383 199.173913 358.2 
L 150.652174 358.2 
L 102.130435 358.2 
z
" style="fill: #9467bd"/>
   </g>
   <g id="matplotlib.axis_1"/>
   <g id="matplotlib.axis_2"/>
   <g id="text_1">
    <!-- R -->
    <g transform="translate(203.816701 356.236277)scale(0.1 -0.1)">
     <defs>
      <path id="DejaVuSans-52" d="M 2841 2188 
Q 3044 2119 3236 1894 
Q 3428 1669 3622 1275 
L 4263 0 
L 3584 0 
L 2988 1197 
Q 2756 1666 2539 1819 
Q 2322 1972 1947 1972 
L 1259 1972 
L 1259 0 
L 628 0 
L 628 4666 
L 2053 4666 
Q 2853 4666 3247 4331 
Q 3641 3997 3641 3322 
Q 3641 2881 3436 2590 
Q 3231 2300 2841 2188 
z
M 1259 4147 
L 1259 2491 
L 2053 2491 
Q 2509 2491 2742 2702 
Q 2975 2913 2975 3322 
Q 2975 3731 2742 3939 
Q 2509 4147 2053 4147 
L 1259 4147 
z
" transform="scale(0.015625)"/>
     </defs>
     <use xlink:href="#DejaVuSans-52"/>
    </g>
   </g>
   <g id="text_2">
    <!-- T -->
    <g transform="translate(197.908995 336.148744)scale(0.1 -0.1)">
     <defs>
      <path id="DejaVuSans-54" d="M -19 4666 
L 3928 4666 
L 3928 4134 
L 2272 4134 
L 2272 0 
L 1638 0 
L 1638 4134 
L -19 4134 
L -19 4666 
z
" transform="scale(0.015625)"/>
     </defs>
     <use xlink:href="#DejaVuSans-54"/>
    </g>
   </g>
   <g id="text_3">
    <!-- U -->
    <g transform="translate(188.230251 323.056041)scale(0.1 -0.1)">
     <defs>
      <path id="DejaVuSans-55" d="M 556 4666 
L 1191 4666 
L 1191 1831 
Q 1191 1081 1462 751 
Q 1734 422 2344 422 
Q 2950 422 3222 751 
Q 3494 1081 3494 1831 
L 3494 4666 
L 4128 4666 
L 4128 1753 
Q 4128 841 3676 375 
Q 3225 -91 2344 -91 
Q 1459 -91 1007 375 
Q 556 841 556 1753 
L 556 4666 
z
" transform="scale(0.015625)"/>
     </defs>
     <use xlink:href="#DejaVuSans-55"/>
    </g>
   </g>
   <g id="text_4">
    <!-- C -->
    <g transform="translate(123.137854 311.692431)scale(0.1 -0.1)">
     <defs>
      <path id="DejaVuSans-43" d="M 4122 4306 
L 4122 3641 
Q 3803 3938 3442 4084 
Q 3081 4231 2675 4231 
Q 1875 4231 1450 3742 
Q 1025 3253 1025 2328 
Q 1025 1406 1450 917 
Q 1875 428 2675 428 
Q 3081 428 3442 575 
Q 3803 722 4122 1019 
L 4122 359 
Q 3791 134 3420 21 
Q 3050 -91 2638 -91 
Q 1578 -91 968 557 
Q 359 1206 359 2328 
Q 359 3453 968 4101 
Q 1578 4750 2638 4750 
Q 3056 4750 3426 4639 
Q 3797 4528 4122 4306 
z
" transform="scale(0.015625)"/>
     </defs>
     <use xlink:href="#DejaVuSans-43"/>
    </g>
   </g>
   <g id="text_5">
    <!-- Q -->
    <g transform="translate(142.780299 414.333288)scale(0.1 -0.1)">
     <defs>
      <path id="DejaVuSans-51" d="M 2522 4238 
Q 1834 4238 1429 3725 
Q 1025 3213 1025 2328 
Q 1025 1447 1429 934 
Q 1834 422 2522 422 
Q 3209 422 3611 934 
Q 4013 1447 4013 2328 
Q 4013 3213 3611 3725 
Q 3209 4238 2522 4238 
z
M 3406 84 
L 4238 -825 
L 3475 -825 
L 2784 -78 
Q 2681 -84 2626 -87 
Q 2572 -91 2522 -91 
Q 1538 -91 948 567 
Q 359 1225 359 2328 
Q 359 3434 948 4092 
Q 1538 4750 2522 4750 
Q 3503 4750 4090 4092 
Q 4678 3434 4678 2328 
Q 4678 1516 4351 937 
Q 4025 359 3406 84 
z
" transform="scale(0.015625)"/>
     </defs>
     <use xlink:href="#DejaVuSans-51"/>
    </g>
   </g>
   <g id="text_6">
    <!-- pH = 6.4 -->
    <g transform="translate(123.947486 291.547826)scale(0.12 -0.12)">
     <defs>
      <path id="DejaVuSans-70" d="M 1159 525 
L 1159 -1331 
L 581 -1331 
L 581 3500 
L 1159 3500 
L 1159 2969 
Q 1341 3281 1617 3432 
Q 1894 3584 2278 3584 
Q 2916 3584 3314 3078 
Q 3713 2572 3713 1747 
Q 3713 922 3314 415 
Q 2916 -91 2278 -91 
Q 1894 -91 1617 61 
Q 1341 213 1159 525 
z
M 3116 1747 
Q 3116 2381 2855 2742 
Q 2594 3103 2138 3103 
Q 1681 3103 1420 2742 
Q 1159 2381 1159 1747 
Q 1159 1113 1420 752 
Q 1681 391 2138 391 
Q 2594 391 2855 752 
Q 3116 1113 3116 1747 
z
" transform="scale(0.015625)"/>
      <path id="DejaVuSans-48" d="M 628 4666 
L 1259 4666 
L 1259 2753 
L 3553 2753 
L 3553 4666 
L 4184 4666 
L 4184 0 
L 3553 0 
L 3553 2222 
L 1259 2222 
L 1259 0 
L 628 0 
L 628 4666 
z
" transform="scale(0.015625)"/>
      <path id="DejaVuSans-20" transform="scale(0.015625)"/>
      <path id="DejaVuSans-3d" d="M 678 2906 
L 4684 2906 
L 4684 2381 
L 678 2381 
L 678 2906 
z
M 678 1631 
L 4684 1631 
L 4684 1100 
L 678 1100 
L 678 1631 
z
" transform="scale(0.015625)"/>
      <path id="DejaVuSans-36" d="M 2113 2584 
Q 1688 2584 1439 2293 
Q 1191 2003 1191 1497 
Q 1191 994 1439 701 
Q 1688 409 2113 409 
Q 2538 409 2786 701 
Q 3034 994 3034 1497 
Q 3034 2003 2786 2293 
Q 2538 2584 2113 2584 
z
M 3366 4563 
L 3366 3988 
Q 3128 4100 2886 4159 
Q 2644 4219 2406 4219 
Q 1781 4219 1451 3797 
Q 1122 3375 1075 2522 
Q 1259 2794 1537 2939 
Q 1816 3084 2150 3084 
Q 2853 3084 3261 2657 
Q 3669 2231 3669 1497 
Q 3669 778 3244 343 
Q 2819 -91 2113 -91 
Q 1303 -91 875 529 
Q 447 1150 447 2328 
Q 447 3434 972 4092 
Q 1497 4750 2381 4750 
Q 2619 4750 2861 4703 
Q 3103 4656 3366 4563 
z
" transform="scale(0.015625)"/>
      <path id="DejaVuSans-2e" d="M 684 794 
L 1344 794 
L 1344 0 
L 684 0 
L 684 794 
z
" transform="scale(0.015625)"/>
      <path id="DejaVuSans-34" d="M 2419 4116 
L 825 1625 
L 2419 1625 
L 2419 4116 
z
M 2253 4666 
L 3047 4666 
L 3047 1625 
L 3713 1625 
L 3713 1100 
L 3047 1100 
L 3047 0 
L 2419 0 
L 2419 1100 
L 313 1100 
L 313 1709 
L 2253 4666 
z
" transform="scale(0.015625)"/>
     </defs>
     <use xlink:href="#DejaVuSans-70"/>
     <use xlink:href="#DejaVuSans-48" x="63.476562"/>
     <use xlink:href="#DejaVuSans-20" x="138.671875"/>
     <use xlink:href="#DejaVuSans-3d" x="170.458984"/>
     <use xlink:href="#DejaVuSans-20" x="254.248047"/>
     <use xlink:href="#DejaVuSans-36" x="286.035156"/>
     <use xlink:href="#DejaVuSans-2e" x="349.658203"/>
     <use xlink:href="#DejaVuSans-34" x="381.445312"/>
    </g>
   </g>
  </g>
  <g id="axes_2">
   <g id="patch_7">
    <path d="M 344.73913 358.2 
C 344.73913 356.812707 344.679634 355.426053 344.560805 354.043859 
C 344.441976 352.661665 344.263924 351.285203 344.02714 349.918267 
L 296.217391 358.2 
L 344.73913 358.2 
z
" style="fill: #1f77b4"/>
   </g>
   <g id="patch_8">
    <path d="M 344.02714 349.918267 
C 343.202578 345.15814 341.671715 340.547737 339.485272 336.239817 
C 337.29883 331.931896 334.481226 327.974566 331.125816 324.498946 
L 296.217391 358.2 
L 344.02714 349.918267 
z
" style="fill: #ff7f0e"/>
   </g>
   <g id="patch_9">
    <path d="M 331.125816 324.498946 
C 330.648177 324.004195 330.160074 323.519655 329.661838 323.045653 
C 329.163602 322.571651 328.655346 322.108295 328.137413 321.655898 
L 296.217391 358.2 
L 331.125816 324.498946 
z
" style="fill: #2ca02c"/>
   </g>
   <g id="patch_10">
    <path d="M 328.137413 321.655898 
C 321.12018 315.526585 312.483816 311.546247 303.265442 310.192874 
C 294.047068 308.839501 284.631076 310.169525 276.148211 314.023228 
C 267.665345 317.876931 260.469328 324.09362 255.424313 331.926746 
C 250.379297 339.759871 247.695653 348.882805 247.695652 358.199996 
L 296.217391 358.2 
L 328.137413 321.655898 
z
" style="fill: #d62728"/>
   </g>
   <g id="patch_11">
    <path d="M 247.695652 358.199996 
C 247.695651 371.063826 252.811237 383.413946 261.907338 392.510048 
C 271.003438 401.60615 283.353557 406.721738 296.217387 406.721739 
C 309.081217 406.72174 321.431337 401.606154 330.527439 392.510054 
C 339.623541 383.413953 344.739129 371.063834 344.73913 358.200004 
L 296.217391 358.2 
L 247.695652 358.199996 
z
" style="fill: #9467bd"/>
   </g>
   <g id="matplotlib.axis_3"/>
   <g id="matplotlib.axis_4"/>
   <g id="text_7">
    <!-- R -->
    <g transform="translate(349.395147 356.38762)scale(0.1 -0.1)">
     <use xlink:href="#DejaVuSans-52"/>
    </g>
   </g>
   <g id="text_8">
    <!-- T -->
    <g transform="translate(343.81206 336.803173)scale(0.1 -0.1)">
     <use xlink:href="#DejaVuSans-54"/>
    </g>
   </g>
   <g id="text_9">
    <!-- U -->
    <g transform="translate(333.006283 322.289593)scale(0.1 -0.1)">
     <use xlink:href="#DejaVuSans-55"/>
    </g>
   </g>
   <g id="text_10">
    <!-- C -->
    <g transform="translate(267.15848 312.364926)scale(0.1 -0.1)">
     <use xlink:href="#DejaVuSans-43"/>
    </g>
   </g>
   <g id="text_11">
    <!-- Q -->
    <g transform="translate(288.345512 414.333288)scale(0.1 -0.1)">
     <use xlink:href="#DejaVuSans-51"/>
    </g>
   </g>
   <g id="text_12">
    <!-- pH = 5.5 -->
    <g transform="translate(269.512704 291.547826)scale(0.12 -0.12)">
     <defs>
      <path id="DejaVuSans-35" d="M 691 4666 
L 3169 4666 
L 3169 4134 
L 1269 4134 
L 1269 2991 
Q 1406 3038 1543 3061 
Q 1681 3084 1819 3084 
Q 2600 3084 3056 2656 
Q 3513 2228 3513 1497 
Q 3513 744 3044 326 
Q 2575 -91 1722 -91 
Q 1428 -91 1123 -41 
Q 819 9 494 109 
L 494 744 
Q 775 591 1075 516 
Q 1375 441 1709 441 
Q 2250 441 2565 725 
Q 2881 1009 2881 1497 
Q 2881 1984 2565 2268 
Q 2250 2553 1709 2553 
Q 1456 2553 1204 2497 
Q 953 2441 691 2322 
L 691 4666 
z
" transform="scale(0.015625)"/>
     </defs>
     <use xlink:href="#DejaVuSans-70"/>
     <use xlink:href="#DejaVuSans-48" x="63.476562"/>
     <use xlink:href="#DejaVuSans-20" x="138.671875"/>
     <use xlink:href="#DejaVuSans-3d" x="170.458984"/>
     <use xlink:href="#DejaVuSans-20" x="254.248047"/>
     <use xlink:href="#DejaVuSans-35" x="286.035156"/>
     <use xlink:href="#DejaVuSans-2e" x="349.658203"/>
     <use xlink:href="#DejaVuSans-35" x="381.445312"/>
    </g>
   </g>
  </g>
  <g id="axes_3">
   <g id="patch_12">
    <path d="M 490.304348 358.2 
C 490.304348 356.906557 490.252629 355.613631 490.149315 354.324321 
C 490.046001 353.035011 489.891175 351.750347 489.685207 350.473409 
L 441.782609 358.2 
L 490.304348 358.2 
z
" style="fill: #1f77b4"/>
   </g>
   <g id="patch_13">
    <path d="M 489.685207 350.473409 
C 488.958683 345.969173 487.600483 341.589837 485.650787 337.464954 
C 483.70109 333.340071 481.179314 329.51072 478.160058 326.090183 
L 441.782609 358.2 
L 489.685207 350.473409 
z
" style="fill: #ff7f0e"/>
   </g>
   <g id="patch_14">
    <path d="M 478.160058 326.090183 
C 476.7772 324.523532 475.294579 323.047849 473.721459 321.672353 
C 472.14834 320.296858 470.488006 319.02442 468.750831 317.862993 
L 441.782609 358.2 
L 478.160058 326.090183 
z
" style="fill: #2ca02c"/>
   </g>
   <g id="patch_15">
    <path d="M 468.750831 317.862993 
C 461.445951 312.979149 452.949788 310.17015 444.173357 309.737195 
C 435.396926 309.304239 426.665543 311.263376 418.915446 315.404533 
C 411.165348 319.545689 404.683809 325.715366 400.165822 333.252009 
C 395.647835 340.788652 393.260869 349.4129 393.26087 358.200003 
L 441.782609 358.2 
L 468.750831 317.862993 
z
" style="fill: #d62728"/>
   </g>
   <g id="patch_16">
    <path d="M 393.26087 358.200003 
C 393.26087 371.063833 398.376458 383.413952 407.47256 392.510053 
C 416.568662 401.606154 428.918782 406.72174 441.782612 406.721739 
C 454.646442 406.721738 466.996561 401.60615 476.092662 392.510048 
C 485.188763 383.413946 490.304349 371.063826 490.304348 358.199997 
L 441.782609 358.2 
L 393.26087 358.200003 
z
" style="fill: #9467bd"/>
   </g>
   <g id="matplotlib.axis_5"/>
   <g id="matplotlib.axis_6"/>
   <g id="text_13">
    <!-- R -->
    <g transform="translate(494.985986 356.696128)scale(0.1 -0.1)">
     <use xlink:href="#DejaVuSans-52"/>
    </g>
   </g>
   <g id="text_14">
    <!-- T -->
    <g transform="translate(490.037605 338.150825)scale(0.1 -0.1)">
     <use xlink:href="#DejaVuSans-54"/>
    </g>
   </g>
   <g id="text_15">
    <!-- U -->
    <g transform="translate(476.915345 320.778964)scale(0.1 -0.1)">
     <use xlink:href="#DejaVuSans-55"/>
    </g>
   </g>
   <g id="text_16">
    <!-- C -->
    <g transform="translate(409.645917 313.884361)scale(0.1 -0.1)">
     <use xlink:href="#DejaVuSans-43"/>
    </g>
   </g>
   <g id="text_17">
    <!-- Q -->
    <g transform="translate(441.782612 414.333288)scale(0.1 -0.1)">
     <use xlink:href="#DejaVuSans-51"/>
    </g>
   </g>
   <g id="text_18">
    <!-- pH = 5.0 -->
    <g transform="translate(415.077921 291.547826)scale(0.12 -0.12)">
     <defs>
      <path id="DejaVuSans-30" d="M 2034 4250 
Q 1547 4250 1301 3770 
Q 1056 3291 1056 2328 
Q 1056 1369 1301 889 
Q 1547 409 2034 409 
Q 2525 409 2770 889 
Q 3016 1369 3016 2328 
Q 3016 3291 2770 3770 
Q 2525 4250 2034 4250 
z
M 2034 4750 
Q 2819 4750 3233 4129 
Q 3647 3509 3647 2328 
Q 3647 1150 3233 529 
Q 2819 -91 2034 -91 
Q 1250 -91 836 529 
Q 422 1150 422 2328 
Q 422 3509 836 4129 
Q 1250 4750 2034 4750 
z
" transform="scale(0.015625)"/>
     </defs>
     <use xlink:href="#DejaVuSans-70"/>
     <use xlink:href="#DejaVuSans-48" x="63.476562"/>
     <use xlink:href="#DejaVuSans-20" x="138.671875"/>
     <use xlink:href="#DejaVuSans-3d" x="170.458984"/>
     <use xlink:href="#DejaVuSans-20" x="254.248047"/>
     <use xlink:href="#DejaVuSans-35" x="286.035156"/>
     <use xlink:href="#DejaVuSans-2e" x="349.658203"/>
     <use xlink:href="#DejaVuSans-30" x="381.445312"/>
    </g>
   </g>
  </g>
  <g id="axes_4">
   <g id="patch_17">
    <path d="M 635.869565 358.2 
C 635.869565 356.973057 635.823028 355.746555 635.730053 354.523139 
C 635.637078 353.299724 635.497733 352.080275 635.312318 350.867422 
L 587.347826 358.2 
L 635.869565 358.2 
z
" style="fill: #1f77b4"/>
   </g>
   <g id="patch_18">
    <path d="M 635.312318 350.867422 
C 634.651587 346.545394 633.409698 342.332434 631.620412 338.34308 
C 629.831127 334.353725 627.510808 330.624457 624.722537 327.256662 
L 587.347826 358.2 
L 635.312318 350.867422 
z
" style="fill: #ff7f0e"/>
   </g>
   <g id="patch_19">
    <path d="M 624.722537 327.256662 
C 622.755663 324.880986 620.566751 322.698244 618.185531 320.738084 
C 615.804311 318.777924 613.241614 317.04926 610.532245 315.575572 
L 587.347826 358.2 
L 624.722537 327.256662 
z
" style="fill: #2ca02c"/>
   </g>
   <g id="patch_20">
    <path d="M 610.532245 315.575572 
C 603.142504 311.55612 594.832963 309.526638 586.422343 309.687088 
C 578.011723 309.847538 569.785633 312.19247 562.554571 316.490844 
C 555.32351 320.789218 549.33303 326.895069 545.17336 334.206801 
C 541.013691 341.518532 538.826086 349.787853 538.826087 358.200003 
L 587.347826 358.2 
L 610.532245 315.575572 
z
" style="fill: #d62728"/>
   </g>
   <g id="patch_21">
    <path d="M 538.826087 358.200003 
C 538.826088 371.063833 543.941675 383.413952 553.037777 392.510053 
C 562.133879 401.606154 574.483999 406.72174 587.347829 406.721739 
C 600.211659 406.721738 612.561778 401.606151 621.657879 392.510049 
C 630.75398 383.413947 635.869566 371.063827 635.869565 358.199997 
L 587.347826 358.2 
L 538.826087 358.200003 
z
" style="fill: #9467bd"/>
   </g>
   <g id="matplotlib.axis_7"/>
   <g id="matplotlib.axis_8"/>
   <g id="text_19">
    <!-- R -->
    <g transform="translate(640.568275 356.914828)scale(0.1 -0.1)">
     <use xlink:href="#DejaVuSans-52"/>
    </g>
   </g>
   <g id="text_20">
    <!-- T -->
    <g transform="translate(636.047671 339.116763)scale(0.1 -0.1)">
     <use xlink:href="#DejaVuSans-54"/>
    </g>
   </g>
   <g id="text_21">
    <!-- U -->
    <g transform="translate(621.269301 319.751268)scale(0.1 -0.1)">
     <use xlink:href="#DejaVuSans-55"/>
    </g>
   </g>
   <g id="text_22">
    <!-- C -->
    <g transform="translate(553.092433 315.079303)scale(0.1 -0.1)">
     <use xlink:href="#DejaVuSans-43"/>
    </g>
   </g>
   <g id="text_23">
    <!-- Q -->
    <g transform="translate(587.347829 414.333288)scale(0.1 -0.1)">
     <use xlink:href="#DejaVuSans-51"/>
    </g>
   </g>
   <g id="text_24">
    <!-- pH = 4.5 -->
    <g transform="translate(560.643139 291.547826)scale(0.12 -0.12)">
     <use xlink:href="#DejaVuSans-70"/>
     <use xlink:href="#DejaVuSans-48" x="63.476562"/>
     <use xlink:href="#DejaVuSans-20" x="138.671875"/>
     <use xlink:href="#DejaVuSans-3d" x="170.458984"/>
     <use xlink:href="#DejaVuSans-20" x="254.248047"/>
     <use xlink:href="#DejaVuSans-34" x="286.035156"/>
     <use xlink:href="#DejaVuSans-2e" x="349.658203"/>
     <use xlink:href="#DejaVuSans-35" x="381.445312"/>
    </g>
   </g>
  </g>
 </g>
</svg>
